<svg width="137" height="168" viewBox="0 0 137 168" fill="none" xmlns="http://www.w3.org/2000/svg">
<path d="M21.1786 167.139H3.40532C3.12495 167.139 2.86461 167.09 2.62429 166.993C2.38398 166.895 2.17871 166.762 2.00348 166.591C1.82825 166.42 1.69307 166.219 1.59294 165.984C1.49281 165.749 1.44275 165.494 1.44275 165.22V146.123H5.33785V163.33H21.1786V167.139Z" fill="black"/>
<rect x="0.00012207" y="71.0715" width="97.634" height="96.0147" rx="10" transform="rotate(-46.714 0.00012207 71.0715)" fill="#7C3AED"/>
<path d="M49.9315 20.3938V87.4297H115.813L98.1069 106.411H39.5052H38.2019L31.6854 100.248V98.5912V39.5696V38.6399V37.3366L49.9315 17.7872V20.3938Z" fill="white"/>
<path d="M39.5052 106.411H98.1069L115.813 87.4297H49.9315V20.3938V17.7872L31.6854 37.3366V38.6399V39.5696V98.5912V100.248M39.5052 106.411L31.6854 100.248M39.5052 106.411H38.2019L31.6854 100.248" stroke="white"/>
<path d="M27.3667 148.042H23.4716V144.6H27.3667V148.042ZM27.3667 167.14H23.4716V151.294H27.3667V167.135V167.14Z" fill="black"/>
<path d="M52.4345 165.514C52.4345 165.788 52.3845 166.043 52.2793 166.278C52.1742 166.513 52.034 166.713 51.8588 166.885C51.6836 167.056 51.4783 167.188 51.238 167.286C50.9977 167.384 50.7423 167.433 50.472 167.433C50.2317 167.433 49.9913 167.389 49.746 167.301C49.5007 167.213 49.2854 167.071 49.0952 166.875L34.8615 152.337V167.139H30.9664V147.749C30.9664 147.357 31.0766 147.004 31.3019 146.686C31.5272 146.368 31.8125 146.133 32.163 145.976C32.5335 145.829 32.914 145.795 33.2995 145.868C33.69 145.942 34.0254 146.118 34.3058 146.402L48.5394 160.926V146.123H52.4345V165.514Z" fill="black"/>
<path d="M77.7228 165.22C77.7228 165.494 77.6727 165.749 77.5726 165.984C77.4724 166.219 77.3373 166.42 77.162 166.591C76.9868 166.763 76.7815 166.895 76.5412 166.993C76.3009 167.091 76.0406 167.14 75.7602 167.14H61.7068C61.3463 167.14 60.9608 167.1 60.5453 167.017C60.1297 166.934 59.7192 166.807 59.3187 166.63C58.9131 166.454 58.5276 166.229 58.1571 165.95C57.7867 165.671 57.4612 165.333 57.1758 164.941C56.8905 164.544 56.6652 164.084 56.495 163.565C56.3247 163.046 56.2396 162.453 56.2396 161.797V151.48C56.2396 151.127 56.2797 150.75 56.3648 150.344C56.4499 149.937 56.5801 149.536 56.7603 149.144C56.9405 148.748 57.1758 148.37 57.4662 148.008C57.7566 147.646 58.1021 147.327 58.5076 147.048C58.9131 146.769 59.3787 146.549 59.9094 146.382C60.4401 146.216 61.0359 146.133 61.7068 146.133H77.5475V149.942H61.7068C61.1961 149.942 60.8056 150.075 60.5403 150.339C60.2699 150.603 60.1347 150.995 60.1347 151.509V161.797C60.1347 162.287 60.2699 162.664 60.5453 162.933C60.8206 163.203 61.2061 163.335 61.7068 163.335H73.8277V158.556H63.4591V154.717H75.7602C76.0406 154.717 76.3009 154.766 76.5412 154.868C76.7815 154.971 76.9868 155.108 77.162 155.285C77.3373 155.461 77.4724 155.662 77.5726 155.892C77.6727 156.122 77.7228 156.367 77.7228 156.631V165.22Z" fill="black"/>
<path d="M102.32 165.22C102.32 165.494 102.27 165.749 102.169 165.984C102.069 166.219 101.929 166.42 101.749 166.591C101.569 166.763 101.358 166.895 101.118 166.993C100.878 167.091 100.622 167.14 100.352 167.14H91.5706C90.7395 167.14 89.9034 167.051 89.0523 166.875C88.2012 166.699 87.3801 166.43 86.5891 166.062C85.793 165.695 85.0471 165.23 84.3512 164.662C83.6502 164.094 83.0394 163.423 82.5137 162.644C81.9881 161.866 81.5775 160.98 81.2771 159.976C80.9767 158.977 80.8265 157.86 80.8265 156.626V146.118H84.7216V156.626C84.7216 157.704 84.8718 158.61 85.1772 159.354C85.4826 160.098 85.8681 160.715 86.3388 161.215C86.8094 161.714 87.32 162.106 87.8808 162.385C88.4415 162.669 88.9722 162.879 89.4779 163.017C89.9835 163.154 90.4291 163.237 90.8096 163.271C91.1951 163.305 91.4455 163.32 91.5656 163.32H98.4146V146.123H102.31V165.22H102.32Z" fill="black"/>
<path d="M109.79 148.042H105.894V144.6H109.79V148.042ZM109.79 167.14H105.894V151.294H109.79V167.135V167.14Z" fill="black"/>
<path d="M134.838 158.345C134.838 159.623 134.612 160.803 134.157 161.876C133.701 162.953 133.075 163.878 132.274 164.652C131.473 165.431 130.527 166.038 129.425 166.479C128.324 166.919 127.132 167.14 125.846 167.14H115.327C115.047 167.14 114.786 167.091 114.546 166.993C114.306 166.895 114.1 166.763 113.925 166.591C113.75 166.42 113.615 166.219 113.515 165.984C113.414 165.749 113.364 165.494 113.364 165.22V148.042C113.364 147.778 113.414 147.528 113.515 147.293C113.615 147.058 113.75 146.853 113.925 146.676C114.1 146.5 114.306 146.363 114.546 146.265C114.786 146.167 115.047 146.118 115.327 146.118H125.846C127.132 146.118 128.329 146.338 129.425 146.779C130.522 147.22 131.473 147.827 132.274 148.606C133.075 149.384 133.701 150.31 134.157 151.392C134.612 152.474 134.838 153.644 134.838 154.917V158.345ZM130.942 154.917C130.942 154.173 130.822 153.497 130.577 152.88C130.332 152.263 129.986 151.739 129.536 151.304C129.085 150.868 128.549 150.53 127.923 150.295C127.298 150.055 126.607 149.937 125.846 149.937H117.259V163.335H125.846C126.607 163.335 127.298 163.217 127.923 162.977C128.549 162.737 129.085 162.4 129.536 161.964C129.986 161.528 130.332 161.004 130.577 160.397C130.822 159.79 130.942 159.104 130.942 158.35V154.922V154.917Z" fill="black"/>
</svg>
