<svg width="196" height="173" viewBox="0 0 196 173" fill="none" xmlns="http://www.w3.org/2000/svg">
<path d="M7.968 120.544V141.712C7.968 144.688 8.688 146.896 10.128 148.336C11.6 149.776 13.632 150.496 16.224 150.496C18.784 150.496 20.784 149.776 22.224 148.336C23.696 146.896 24.432 144.688 24.432 141.712V120.544H28.8V141.664C28.8 144.448 28.24 146.8 27.12 148.72C26 150.608 24.48 152.016 22.56 152.944C20.672 153.872 18.544 154.336 16.176 154.336C13.808 154.336 11.664 153.872 9.744 152.944C7.856 152.016 6.352 150.608 5.232 148.72C4.144 146.8 3.6 144.448 3.6 141.664V120.544H7.968ZM48.9026 127.216C52.1026 127.216 54.6946 128.192 56.6786 130.144C58.6626 132.064 59.6546 134.848 59.6546 138.496V154H55.3346V139.12C55.3346 136.496 54.6786 134.496 53.3666 133.12C52.0546 131.712 50.2626 131.008 47.9906 131.008C45.6866 131.008 43.8466 131.728 42.4706 133.168C41.1266 134.608 40.4546 136.704 40.4546 139.456V154H36.0866V127.696H40.4546V131.44C41.3186 130.096 42.4866 129.056 43.9586 128.32C45.4626 127.584 47.1106 127.216 48.9026 127.216ZM69.0458 123.424C68.2138 123.424 67.5098 123.136 66.9338 122.56C66.3578 121.984 66.0698 121.28 66.0698 120.448C66.0698 119.616 66.3578 118.912 66.9338 118.336C67.5098 117.76 68.2138 117.472 69.0458 117.472C69.8458 117.472 70.5178 117.76 71.0618 118.336C71.6378 118.912 71.9258 119.616 71.9258 120.448C71.9258 121.28 71.6378 121.984 71.0618 122.56C70.5178 123.136 69.8458 123.424 69.0458 123.424ZM71.1578 127.696V154H66.7898V127.696H71.1578ZM112.538 120.784V154H108.17V129.232L97.1303 154H94.0583L82.9703 129.184V154H78.6023V120.784H83.3063L95.5943 148.24L107.882 120.784H112.538ZM118.314 140.752C118.314 138.064 118.858 135.712 119.946 133.696C121.034 131.648 122.522 130.064 124.41 128.944C126.33 127.824 128.458 127.264 130.794 127.264C133.098 127.264 135.098 127.76 136.794 128.752C138.49 129.744 139.754 130.992 140.586 132.496V127.696H145.002V154H140.586V149.104C139.722 150.64 138.426 151.92 136.698 152.944C135.002 153.936 133.018 154.432 130.746 154.432C128.41 154.432 126.298 153.856 124.41 152.704C122.522 151.552 121.034 149.936 119.946 147.856C118.858 145.776 118.314 143.408 118.314 140.752ZM140.586 140.8C140.586 138.816 140.186 137.088 139.386 135.616C138.586 134.144 137.498 133.024 136.122 132.256C134.778 131.456 133.29 131.056 131.658 131.056C130.026 131.056 128.538 131.44 127.194 132.208C125.85 132.976 124.778 134.096 123.978 135.568C123.178 137.04 122.778 138.768 122.778 140.752C122.778 142.768 123.178 144.528 123.978 146.032C124.778 147.504 125.85 148.64 127.194 149.44C128.538 150.208 130.026 150.592 131.658 150.592C133.29 150.592 134.778 150.208 136.122 149.44C137.498 148.64 138.586 147.504 139.386 146.032C140.186 144.528 140.586 142.784 140.586 140.8ZM157.712 131.296V146.8C157.712 148.08 157.984 148.992 158.528 149.536C159.072 150.048 160.016 150.304 161.359 150.304H164.576V154H160.64C158.208 154 156.384 153.44 155.168 152.32C153.952 151.2 153.344 149.36 153.344 146.8V131.296H149.936V127.696H153.344V121.072H157.712V127.696H164.576V131.296H157.712ZM193.868 139.84C193.868 140.672 193.82 141.552 193.724 142.48H172.7C172.86 145.072 173.74 147.104 175.34 148.576C176.972 150.016 178.94 150.736 181.244 150.736C183.132 150.736 184.7 150.304 185.948 149.44C187.228 148.544 188.124 147.36 188.636 145.888H193.34C192.636 148.416 191.228 150.48 189.116 152.08C187.004 153.648 184.38 154.432 181.244 154.432C178.748 154.432 176.508 153.872 174.524 152.752C172.572 151.632 171.036 150.048 169.916 148C168.796 145.92 168.236 143.52 168.236 140.8C168.236 138.08 168.78 135.696 169.868 133.648C170.956 131.6 172.476 130.032 174.428 128.944C176.412 127.824 178.684 127.264 181.244 127.264C183.74 127.264 185.948 127.808 187.868 128.896C189.788 129.984 191.26 131.488 192.284 133.408C193.34 135.296 193.868 137.44 193.868 139.84ZM189.356 138.928C189.356 137.264 188.988 135.84 188.252 134.656C187.516 133.44 186.508 132.528 185.228 131.92C183.98 131.28 182.588 130.96 181.052 130.96C178.844 130.96 176.956 131.664 175.388 133.072C173.852 134.48 172.972 136.432 172.748 138.928H189.356Z" fill="#6D74DF"/>
<path d="M148 20.0001V23.3334C148 23.7754 147.824 24.1993 147.512 24.5119C147.199 24.8245 146.775 25.0001 146.333 25.0001H141.333V27.5001C141.333 28.8807 140.214 30.0001 138.833 30.0001H57.1667C55.786 30.0001 54.6667 28.8807 54.6667 27.5001V25.0001H49.6667C49.2246 25.0001 48.8007 24.8245 48.4882 24.5119C48.1756 24.1993 48 23.7754 48 23.3334V20.0001C48 19.6703 48.0978 19.348 48.281 19.0739C48.4643 18.7998 48.7247 18.5861 49.0294 18.4601L97.3627 0.126723C97.7708 -0.0422411 98.2292 -0.0422411 98.6373 0.126723L146.971 18.4601C147.275 18.5861 147.536 18.7998 147.719 19.0739C147.902 19.348 148 19.6703 148 20.0001ZM143 83.3334H53C50.2385 83.3334 48 85.572 48 88.3334V91.6668C48 92.1088 48.1756 92.5327 48.4882 92.8453C48.8007 93.1578 49.2246 93.3334 49.6667 93.3334H146.333C146.775 93.3334 147.199 93.1578 147.512 92.8453C147.824 92.5327 148 92.1088 148 91.6668V88.3334C148 85.572 145.761 83.3334 143 83.3334ZM64.6667 33.3334V73.3334H57.1667C55.786 73.3334 54.6667 74.4528 54.6667 75.8334V80.0001H141.333V75.8334C141.333 74.4528 140.214 73.3334 138.833 73.3334H131.333V33.3334H118V73.3334H104.667V33.3334H91.3333V73.3334H78V33.3334H64.6667Z" fill="#6D74DF"/>
</svg>
